<svg width="140" height="168" viewBox="0 0 140 168" fill="none" xmlns="http://www.w3.org/2000/svg">
<rect x="2" y="2" width="126" height="153" rx="4" stroke="#333333" stroke-width="4"/>
<rect x="12" y="13" width="126" height="153" rx="4" fill="white" stroke="#333333" stroke-width="4"/>
<path d="M74.7188 46.7813V50.2188H19.7812V46.7813H74.7188ZM131.219 41.8828H19.7812V38.4453H131.219V41.8828ZM131.219 33.5547H19.7812V30.1172H131.219V33.5547ZM19.7812 21.7812H131.219V25.2188H19.7812V21.7812ZM74.7188 58.7188H19.7812V55.2812H74.7188V58.7188Z" fill="#333333" stroke="#333333" stroke-width="1.5625"/>
<path d="M92.6667 85.3333V64.6667H113.333V85.3333H92.6667Z" stroke="white" stroke-width="33.3333"/>
<mask id="path-5-inside-1_5_138" fill="white">
<path d="M87.25 54.75H91.75V59.25H87.25V70.5C87.25 71.6935 86.7759 72.8381 85.932 73.682C85.0881 74.5259 83.9435 75 82.75 75C83.9435 75 85.0881 75.4741 85.932 76.318C86.7759 77.1619 87.25 78.3065 87.25 79.5V90.75H91.75V95.25H87.25C84.8425 94.6425 82.75 93.225 82.75 90.75V81.75C82.75 80.5565 82.2759 79.4119 81.432 78.568C80.5881 77.7241 79.4435 77.25 78.25 77.25H76V72.75H78.25C79.4435 72.75 80.5881 72.2759 81.432 71.432C82.2759 70.5881 82.75 69.4435 82.75 68.25V59.25C82.75 58.0565 83.2241 56.9119 84.068 56.068C84.9119 55.2241 86.0565 54.75 87.25 54.75ZM118.75 54.75C119.943 54.75 121.088 55.2241 121.932 56.068C122.776 56.9119 123.25 58.0565 123.25 59.25V68.25C123.25 69.4435 123.724 70.5881 124.568 71.432C125.412 72.2759 126.557 72.75 127.75 72.75H130V77.25H127.75C126.557 77.25 125.412 77.7241 124.568 78.568C123.724 79.4119 123.25 80.5565 123.25 81.75V90.75C123.25 91.9435 122.776 93.0881 121.932 93.932C121.088 94.7759 119.943 95.25 118.75 95.25H114.25V90.75H118.75V79.5C118.75 78.3065 119.224 77.1619 120.068 76.318C120.912 75.4741 122.057 75 123.25 75C122.057 75 120.912 74.5259 120.068 73.682C119.224 72.8381 118.75 71.6935 118.75 70.5V59.25H114.25V54.75H118.75Z"/>
</mask>
<path d="M87.25 54.75H91.75V59.25H87.25V70.5C87.25 71.6935 86.7759 72.8381 85.932 73.682C85.0881 74.5259 83.9435 75 82.75 75C83.9435 75 85.0881 75.4741 85.932 76.318C86.7759 77.1619 87.25 78.3065 87.25 79.5V90.75H91.75V95.25H87.25C84.8425 94.6425 82.75 93.225 82.75 90.75V81.75C82.75 80.5565 82.2759 79.4119 81.432 78.568C80.5881 77.7241 79.4435 77.25 78.25 77.25H76V72.75H78.25C79.4435 72.75 80.5881 72.2759 81.432 71.432C82.2759 70.5881 82.75 69.4435 82.75 68.25V59.25C82.75 58.0565 83.2241 56.9119 84.068 56.068C84.9119 55.2241 86.0565 54.75 87.25 54.75ZM118.75 54.75C119.943 54.75 121.088 55.2241 121.932 56.068C122.776 56.9119 123.25 58.0565 123.25 59.25V68.25C123.25 69.4435 123.724 70.5881 124.568 71.432C125.412 72.2759 126.557 72.75 127.75 72.75H130V77.25H127.75C126.557 77.25 125.412 77.7241 124.568 78.568C123.724 79.4119 123.25 80.5565 123.25 81.75V90.75C123.25 91.9435 122.776 93.0881 121.932 93.932C121.088 94.7759 119.943 95.25 118.75 95.25H114.25V90.75H118.75V79.5C118.75 78.3065 119.224 77.1619 120.068 76.318C120.912 75.4741 122.057 75 123.25 75C122.057 75 120.912 74.5259 120.068 73.682C119.224 72.8381 118.75 71.6935 118.75 70.5V59.25H114.25V54.75H118.75Z" fill="#333333"/>
<path d="M87.25 54.75V21.4167V54.75ZM91.75 54.75H125.083V21.4167H91.75V54.75ZM91.75 59.25V92.5833H125.083V59.25H91.75ZM87.25 59.25V25.9167H53.9167V59.25H87.25ZM87.25 70.5H120.583H87.25ZM87.25 79.5H120.583H87.25ZM87.25 90.75H53.9167V124.083H87.25V90.75ZM91.75 90.75H125.083V57.4167H91.75V90.75ZM91.75 95.25V128.583H125.083V95.25H91.75ZM87.25 95.25L79.0944 127.57L83.1093 128.583H87.25V95.25ZM82.75 81.75H116.083H82.75ZM76 77.25H42.6667V110.583H76V77.25ZM76 72.75V39.4167H42.6667V72.75H76ZM82.75 68.25H116.083H82.75ZM118.75 54.75V21.4167V54.75ZM130 72.75H163.333V39.4167H130V72.75ZM130 77.25V110.583H163.333V77.25H130ZM114.25 95.25H80.9167V128.583H114.25V95.25ZM114.25 90.75V57.4167H80.9167V90.75H114.25ZM118.75 90.75V124.083H152.083V90.75H118.75ZM118.75 59.25H152.083V25.9167H118.75V59.25ZM114.25 59.25H80.9167V92.5833H114.25V59.25ZM114.25 54.75V21.4167H80.9167V54.75H114.25ZM87.25 88.0833H91.75V21.4167H87.25V88.0833ZM58.4167 54.75V59.25H125.083V54.75H58.4167ZM91.75 25.9167H87.25V92.5833H91.75V25.9167ZM53.9167 59.25V70.5H120.583V59.25H53.9167ZM53.9167 70.5C53.9167 62.8529 56.9545 55.519 62.3618 50.1118L109.502 97.2522C116.597 90.1571 120.583 80.534 120.583 70.5H53.9167ZM62.3618 50.1118C67.7691 44.7045 75.1029 41.6667 82.75 41.6667V108.333C92.784 108.333 102.407 104.347 109.502 97.2522L62.3618 50.1118ZM82.75 108.333C75.1029 108.333 67.769 105.296 62.3618 99.8882L109.502 52.7478C102.407 45.6527 92.7841 41.6667 82.75 41.6667V108.333ZM62.3618 99.8882C56.9545 94.481 53.9167 87.1471 53.9167 79.5H120.583C120.583 69.466 116.597 59.8429 109.502 52.7478L62.3618 99.8882ZM53.9167 79.5V90.75H120.583V79.5H53.9167ZM87.25 124.083H91.75V57.4167H87.25V124.083ZM58.4167 90.75V95.25H125.083V90.75H58.4167ZM91.75 61.9167H87.25V128.583H91.75V61.9167ZM95.4056 62.9298C97.458 63.4477 101.873 64.8642 106.363 68.8944C111.645 73.6353 116.083 81.3316 116.083 90.75H49.4167C49.4167 117.304 72.6293 125.939 79.0944 127.57L95.4056 62.9298ZM116.083 90.75V81.75H49.4167V90.75H116.083ZM116.083 81.75C116.083 71.716 112.097 62.0929 105.002 54.9978L57.8618 102.138C52.4545 96.7309 49.4167 89.3971 49.4167 81.75H116.083ZM105.002 54.9978C97.9071 47.9027 88.284 43.9167 78.25 43.9167V110.583C70.6029 110.583 63.2691 107.546 57.8618 102.138L105.002 54.9978ZM78.25 43.9167H76V110.583H78.25V43.9167ZM109.333 77.25V72.75H42.6667V77.25H109.333ZM76 106.083H78.25V39.4167H76V106.083ZM78.25 106.083C88.284 106.083 97.9071 102.097 105.002 95.0022L57.8618 47.8618C63.2691 42.4545 70.6029 39.4167 78.25 39.4167V106.083ZM105.002 95.0022C112.097 87.9071 116.083 78.284 116.083 68.25H49.4167C49.4167 60.6029 52.4545 53.2691 57.8618 47.8618L105.002 95.0022ZM116.083 68.25V59.25H49.4167V68.25H116.083ZM116.083 59.25C116.083 66.8971 113.046 74.2309 107.638 79.6382L60.4978 32.4978C53.4027 39.5929 49.4167 49.216 49.4167 59.25H116.083ZM107.638 79.6382C102.231 85.0455 94.8971 88.0833 87.25 88.0833V21.4167C77.216 21.4167 67.5929 25.4027 60.4978 32.4978L107.638 79.6382ZM118.75 88.0833C111.103 88.0833 103.769 85.0455 98.3618 79.6382L145.502 32.4978C138.407 25.4027 128.784 21.4167 118.75 21.4167V88.0833ZM98.3618 79.6382C92.9544 74.2309 89.9167 66.897 89.9167 59.25H156.583C156.583 49.216 152.597 39.5929 145.502 32.4978L98.3618 79.6382ZM89.9167 59.25V68.25H156.583V59.25H89.9167ZM89.9167 68.25C89.9167 78.2841 93.9027 87.9071 100.998 95.0022L148.138 47.8618C153.546 53.269 156.583 60.6029 156.583 68.25H89.9167ZM100.998 95.0022C108.093 102.097 117.716 106.083 127.75 106.083V39.4167C135.397 39.4167 142.731 42.4545 148.138 47.8618L100.998 95.0022ZM127.75 106.083H130V39.4167H127.75V106.083ZM96.6667 72.75V77.25H163.333V72.75H96.6667ZM130 43.9167H127.75V110.583H130V43.9167ZM127.75 43.9167C117.716 43.9167 108.093 47.9027 100.998 54.9978L148.138 102.138C142.731 107.546 135.397 110.583 127.75 110.583V43.9167ZM100.998 54.9978C93.9027 62.0929 89.9167 71.7159 89.9167 81.75H156.583C156.583 89.3971 153.546 96.731 148.138 102.138L100.998 54.9978ZM89.9167 81.75V90.75H156.583V81.75H89.9167ZM89.9167 90.75C89.9167 83.103 92.9544 75.7691 98.3618 70.3618L145.502 117.502C152.597 110.407 156.583 100.784 156.583 90.75H89.9167ZM98.3618 70.3618C103.769 64.9544 111.103 61.9167 118.75 61.9167V128.583C128.784 128.583 138.407 124.597 145.502 117.502L98.3618 70.3618ZM118.75 61.9167H114.25V128.583H118.75V61.9167ZM147.583 95.25V90.75H80.9167V95.25H147.583ZM114.25 124.083H118.75V57.4167H114.25V124.083ZM152.083 90.75V79.5H85.4167V90.75H152.083ZM152.083 79.5C152.083 87.1471 149.046 94.481 143.638 99.8882L96.4978 52.7478C89.4027 59.8429 85.4167 69.4659 85.4167 79.5H152.083ZM143.638 99.8882C138.231 105.296 130.897 108.333 123.25 108.333V41.6667C113.216 41.6667 103.593 45.6527 96.4978 52.7478L143.638 99.8882ZM123.25 41.6667C130.897 41.6667 138.231 44.7045 143.638 50.1118L96.4978 97.2522C103.593 104.347 113.216 108.333 123.25 108.333V41.6667ZM143.638 50.1118C149.046 55.519 152.083 62.8529 152.083 70.5H85.4167C85.4167 80.5341 89.4027 90.1571 96.4978 97.2522L143.638 50.1118ZM152.083 70.5V59.25H85.4167V70.5H152.083ZM118.75 25.9167H114.25V92.5833H118.75V25.9167ZM147.583 59.25V54.75H80.9167V59.25H147.583ZM114.25 88.0833H118.75V21.4167H114.25V88.0833Z" fill="#333333" mask="url(#path-5-inside-1_5_138)"/>
<rect x="90.8438" y="64.5312" width="24.3125" height="2.375" fill="#333333" stroke="#333333"/>
<rect x="90.8438" y="73.8125" width="24.3125" height="2.375" fill="#333333" stroke="#333333"/>
<rect x="90.8438" y="83.0938" width="24.3125" height="2.375" fill="#333333" stroke="#333333"/>
<rect x="27.5" y="146.5" width="31" height="3" fill="#333333" stroke="#333333"/>
<path d="M36.8464 128.256C36.8464 130.808 34.7282 132.9 32.1164 132.9C29.5051 132.9 27.3906 130.808 27.3906 128.256L27.3948 99.7518C27.4659 98.5727 27.9917 97.4631 28.8672 96.6498C29.7457 95.8338 30.9096 95.3782 32.1206 95.3782C33.3315 95.3782 34.4955 95.8338 35.3739 96.6498C36.2495 97.4631 36.7752 98.5727 36.8464 99.7518V128.256ZM30.6356 98.2749C30.2416 98.6624 30.0189 99.1894 30.0189 99.7402V128.256C30.0189 128.807 30.2416 129.334 30.6356 129.721C31.0295 130.108 31.5622 130.325 32.1164 130.325C32.6706 130.325 33.2034 130.108 33.5972 129.721C33.9913 129.334 34.2139 128.807 34.2139 128.256V99.7402C34.2139 99.1894 33.9913 98.6624 33.5972 98.2749C33.2034 97.8877 32.6706 97.6713 32.1164 97.6713C31.5622 97.6713 31.0295 97.8877 30.6356 98.2749ZM52.1957 128.256C52.1957 130.808 50.0812 132.9 47.4699 132.9C44.8585 132.9 42.7441 130.808 42.7441 128.256V113.159C42.7441 110.607 44.8581 108.518 47.4699 108.518C50.0814 108.518 52.1957 110.61 52.1957 113.159V128.256ZM45.9932 111.693C45.5991 112.081 45.3765 112.608 45.3765 113.159V128.256C45.3765 128.807 45.5991 129.334 45.9932 129.721C46.387 130.108 46.9198 130.325 47.474 130.325C48.0282 130.325 48.561 130.108 48.9548 129.721C49.3489 129.334 49.5715 128.807 49.5715 128.256V113.159C49.5715 112.608 49.3489 112.081 48.9548 111.693C48.561 111.306 48.0282 111.09 47.474 111.09C46.9198 111.09 46.387 111.306 45.9932 111.693ZM82.9067 128.256C82.9067 130.808 80.7922 132.9 78.1809 132.9C75.5695 132.9 73.4551 130.808 73.4551 128.256V118.194C73.4551 115.641 75.5695 113.549 78.1809 113.549C80.7922 113.549 82.9067 115.641 82.9067 118.194V128.256ZM76.7 116.729C76.306 117.116 76.0834 117.643 76.0834 118.194V128.256C76.0834 128.807 76.306 129.334 76.7 129.721C77.0939 130.108 77.6267 130.325 78.1809 130.325C78.735 130.325 79.2678 130.108 79.6617 129.721C80.0557 129.334 80.2783 128.807 80.2783 128.256V118.194C80.2783 117.643 80.0557 117.116 79.6617 116.729C79.2678 116.341 78.735 116.125 78.1809 116.125C77.6267 116.125 77.0939 116.341 76.7 116.729ZM67.5532 128.256C67.5532 130.808 65.4388 132.9 62.8274 132.9C60.2161 132.9 58.1016 130.808 58.1016 128.256V93.0309C58.1016 90.4787 60.2156 88.3906 62.8274 88.3906C65.439 88.3906 67.5532 90.4826 67.5532 93.0309V128.256ZM61.3466 91.5656C60.9526 91.9531 60.7299 92.4801 60.7299 93.0309V128.256C60.7299 128.807 60.9526 129.334 61.3466 129.721C61.7405 130.108 62.2732 130.325 62.8274 130.325C63.3816 130.325 63.9144 130.108 64.3082 129.721C64.7023 129.334 64.9249 128.807 64.9249 128.256V93.0309C64.9249 92.4801 64.7023 91.9531 64.3082 91.5656C63.9144 91.1784 63.3816 90.962 62.8274 90.962C62.2732 90.962 61.7405 91.1784 61.3466 91.5656ZM27.3906 137.034H84.6094V139.609H27.3906V137.034Z" fill="#333333" stroke="#333333" stroke-width="0.78125"/>
</svg>
