<!DOCTYPE svg PUBLIC "-//W3C//DTD SVG 1.1//EN" "http://www.w3.org/Graphics/SVG/1.1/DTD/svg11.dtd">
<!-- Uploaded to: SVG Repo, www.svgrepo.com, Transformed by: SVG Repo Mixer Tools -->
<svg width="800px" height="800px" viewBox="0 0 1024 1024" class="icon" version="1.1" xmlns="http://www.w3.org/2000/svg" fill="#000000">
<g id="SVGRepo_bgCarrier" stroke-width="0"/>
<g id="SVGRepo_tracerCarrier" stroke-linecap="round" stroke-linejoin="round"/>
<g id="SVGRepo_iconCarrier">
<path d="M853.333333 874.666667H170.666667c-46.933333 0-85.333333-38.4-85.333334-85.333334V234.666667c0-46.933333 38.4-85.333333 85.333334-85.333334h682.666666c46.933333 0 85.333333 38.4 85.333334 85.333334v554.666666c0 46.933333-38.4 85.333333-85.333334 85.333334z" fill="#000000"/>
<path d="M768 362.666667h-106.666667l-42.666666-42.666667 42.666666-42.666667h106.666667l42.666667 42.666667zM768 746.666667h-106.666667l-42.666666-42.666667 42.666666-42.666667h106.666667l42.666667 42.666667zM789.333333 640V384l42.666667-42.666667 42.666667 42.666667v256l-42.666667 42.666667zM554.666667 640V384l42.666666-42.666667 42.666667 42.666667v256l-42.666667 42.666667zM362.666667 362.666667h-106.666667l-42.666667-42.666667 42.666667-42.666667h106.666667l42.666666 42.666667zM362.666667 746.666667h-106.666667l-42.666667-42.666667 42.666667-42.666667h106.666667l42.666666 42.666667zM384 640V384l42.666667-42.666667 42.666666 42.666667v256l-42.666666 42.666667zM149.333333 640V384l42.666667-42.666667 42.666667 42.666667v256l-42.666667 42.666667z" fill="#ffffff"/>
</g>
</svg>